<?xml version="1.0" encoding="iso-8859-1"?>
<!-- Uploaded to: SVG Repo, www.svgrepo.com, Generator: SVG Repo Mixer Tools -->
<svg height="800px" width="800px" version="1.1" id="Layer_1" xmlns="http://www.w3.org/2000/svg" xmlns:xlink="http://www.w3.org/1999/xlink" 
	 viewBox="0 0 512 512" xml:space="preserve">
<path style="fill:#E5E5E5;" d="M256,0C114.616,0,0,114.616,0,256s114.616,256,256,256s256-114.616,256-256S397.384,0,256,0z"/>
<path style="fill:#F00000;" d="M380.368,397.632H131.632C107.632,397.632,88,378,88,354V199.064c0-24,19.632-43.632,43.632-43.632
	h248.736c24,0,43.632,19.632,43.632,43.632V354C424,378,404.368,397.632,380.368,397.632z"/>
<path d="M351.912,204.696h-21v-76.784c0-13.536-11-24.544-24.536-24.544H205.632c-13.536,0-24.536,11.016-24.536,24.544v76.784h-21
	v-76.784c0-25.112,20.424-45.544,45.536-45.544h100.744c25.112,0,45.536,20.44,45.536,45.544
	C351.912,127.912,351.912,204.696,351.912,204.696z"/>
<g>
	<path style="fill:#FFFFFF;" d="M157.432,306.096l9.504,18.032c2.424,4.592,4.936,9.472,7.312,14.6l0.2-0.056
		c-0.664-5.656-0.936-11.416-1.168-16.36l-0.824-20.744l11.496-3.464l10.312,17.256c2.832,4.888,5.656,9.776,8.232,14.848
		l0.184-0.056c-0.944-5.568-1.576-11.12-2.136-16.8l-1.576-19.784l14.264-4.296l-0.256,51.136l-13.688,4.128L189.92,329.4
		c-2.528-4.248-4.664-8.192-7.352-13.664l-0.184,0.064c0.888,6.096,1.232,10.696,1.32,15.48l0.264,17.872l-13.688,4.12
		l-27.696-42.712L157.432,306.096z"/>
	<path style="fill:#FFFFFF;" d="M231.88,283.672l9.504,18.024c2.424,4.592,4.936,9.472,7.312,14.6l0.2-0.056
		c-0.664-5.656-0.936-11.416-1.168-16.36l-0.824-20.744l11.496-3.456l10.312,17.256c2.832,4.888,5.656,9.784,8.232,14.856
		l0.184-0.064c-0.944-5.568-1.576-11.112-2.136-16.8l-1.576-19.784l14.264-4.296l-0.256,51.144l-13.688,4.12l-9.368-15.136
		c-2.528-4.248-4.664-8.192-7.352-13.656l-0.184,0.056c0.888,6.096,1.232,10.696,1.32,15.48l0.264,17.872l-13.688,4.128
		l-27.696-42.72L231.88,283.672z"/>
	<path style="fill:#FFFFFF;" d="M306.336,261.24l9.504,18.024c2.424,4.592,4.936,9.472,7.312,14.608l0.2-0.064
		c-0.664-5.656-0.936-11.408-1.168-16.36l-0.824-20.728l11.496-3.464l10.312,17.256c2.832,4.888,5.656,9.776,8.232,14.848
		l0.184-0.056c-0.944-5.568-1.576-11.12-2.136-16.808l-1.576-19.784l14.264-4.296l-0.256,51.144l-13.688,4.128l-9.368-15.136
		c-2.528-4.248-4.664-8.2-7.352-13.664l-0.184,0.056c0.888,6.096,1.232,10.696,1.32,15.48l0.264,17.872l-13.688,4.128l-27.696-42.72
		L306.336,261.24z"/>
</g>
</svg>